#Comment line ignore any data following # character 
#Hierarchical Translation and Rotation (.htr) file 
[Header]	
#Header keywords are followed by a single value 
FileType HTR		#Single word string
DataType HTRS		#Translation followed by rotation and scale data
FileVersion 1		#integer
NumSegments 84		#integer
NumFrames 2		#integer
DataFrameRate 30		#integer, data frame rate in this file
EulerRotationOrder ZYX
CalibrationUnits mm
RotationUnits Degrees
GlobalAxisofGravity Y
BoneLengthAxis Y
ScaleFactor 1.00
[SegmentNames&Hierarchy]
#CHILD	PARENT
MASTER GLOBAL
root MASTER
chest root
L_mid_tent01 root
R_mid_tent01 root
spine01 root
Bip01_Neck chest
L_humerus chest
R_humerus chest
weapon_bone chest
Bip01_Head Bip01_Neck
eye_left_bone Bip01_Head
eye_right_bone Bip01_Head
L_forearm L_humerus
L_front_hand L_forearm
L_weapon_bone L_forearm
L_front_hand01_01 L_front_hand
L_front_hand02_01 L_front_hand
L_front_hand03_01 L_front_hand
L_front_hand01_02 L_front_hand01_01
L_front_hand02_02 L_front_hand02_01
L_front_hand03_02 L_front_hand03_01
R_forearm R_humerus
R_front_hand R_forearm
R_weapon_bone R_forearm
R_front_hand01_01 R_front_hand
R_front_hand02_01 R_front_hand
R_front_hand03_01 R_front_hand
R_front_hand01_02 R_front_hand01_01
R_front_hand02_02 R_front_hand02_01
R_front_hand03_02 R_front_hand03_01
null_rope01_connect L_mid_tent01
Rope1_Seg01 null_rope01_connect
Rope1_Seg02 Rope1_Seg01
Rope1_Seg03 Rope1_Seg02
Rope1_Seg04 Rope1_Seg03
Rope1_Seg05 Rope1_Seg04
Rope1_Seg06 Rope1_Seg05
Rope1_Seg07 Rope1_Seg06
Rope1_Seg09 Rope1_Seg07
L_mid_hand01 Rope1_Seg09
L_mid_hand02 Rope1_Seg09
L_mid_hand03 Rope1_Seg09
null_rope02_connect R_mid_tent01
Rope2_Seg01 null_rope02_connect
Rope2_Seg02 Rope2_Seg01
Rope2_Seg03 Rope2_Seg02
Rope2_Seg04 Rope2_Seg03
Rope2_Seg05 Rope2_Seg04
Rope2_Seg06 Rope2_Seg05
Rope2_Seg07 Rope2_Seg06
Rope2_Seg09 Rope2_Seg07
R_mid_hand01 Rope2_Seg09
R_mid_hand02 Rope2_Seg09
R_mid_hand03 Rope2_Seg09
spine02 spine01
spine03 spine02
pelvis spine03
null_rope03_connect pelvis
null_rope04_connect pelvis
Rope3_Seg01 null_rope03_connect
Rope3_Seg02 Rope3_Seg01
Rope3_Seg03 Rope3_Seg02
Rope3_Seg04 Rope3_Seg03
Rope3_Seg05 Rope3_Seg04
Rope3_Seg06 Rope3_Seg05
Rope3_Seg07 Rope3_Seg06
Rope3_Seg08 Rope3_Seg07
Rope3_Seg09 Rope3_Seg08
R_rear_hand01 Rope3_Seg09
R_rear_hand02 Rope3_Seg09
R_rear_hand03 Rope3_Seg09
Rope4_Seg01 null_rope04_connect
Rope4_Seg02 Rope4_Seg01
Rope4_Seg03 Rope4_Seg02
Rope4_Seg04 Rope4_Seg03
Rope4_Seg05 Rope4_Seg04
Rope4_Seg06 Rope4_Seg05
Rope4_Seg07 Rope4_Seg06
Rope4_Seg08 Rope4_Seg07
Rope4_Seg09 Rope4_Seg08
L_rear_hand01 Rope4_Seg09
L_rear_hand02 Rope4_Seg09
L_rear_hand03 Rope4_Seg09
[BasePosition]
#SegmentName Tx, Ty, Tz, Rx, Ry, Rz, BoneLength
MASTER 0.000000 0.000000 0.000000 -90.000000 0.000000 0.000000 10.000000 
root 0.000000 0.000000 0.000000 0.000000 0.000000 0.000000 10.000000 
chest 0.000000 0.000000 0.000000 0.000000 0.000000 0.000000 10.000000 
L_mid_tent01 0.000000 0.000000 0.000000 0.000000 0.000000 0.000000 10.000000 
R_mid_tent01 0.000000 0.000000 0.000000 0.000000 0.000000 0.000000 10.000000 
spine01 0.000000 0.000000 0.000000 0.000000 0.000000 0.000000 10.000000 
Bip01_Neck 0.000000 0.000000 0.000000 0.000000 0.000000 0.000000 10.000000 
L_humerus 0.000000 0.000000 0.000000 0.000000 0.000000 0.000000 10.000000 
R_humerus 0.000000 0.000000 0.000000 0.000000 0.000000 0.000000 10.000000 
weapon_bone 0.000000 0.000000 0.000000 0.000000 0.000000 0.000000 10.000000 
Bip01_Head 0.000000 0.000000 0.000000 0.000000 0.000000 0.000000 10.000000 
eye_left_bone 0.000000 0.000000 0.000000 0.000000 0.000000 0.000000 10.000000 
eye_right_bone 0.000000 0.000000 0.000000 0.000000 0.000000 0.000000 10.000000 
L_forearm 0.000000 0.000000 0.000000 0.000000 0.000000 0.000000 10.000000 
L_front_hand 0.000000 0.000000 0.000000 0.000000 0.000000 0.000000 10.000000 
L_weapon_bone 0.000000 0.000000 0.000000 0.000000 0.000000 0.000000 10.000000 
L_front_hand01_01 0.000000 0.000000 0.000000 0.000000 0.000000 0.000000 10.000000 
L_front_hand02_01 0.000000 0.000000 0.000000 0.000000 0.000000 0.000000 10.000000 
L_front_hand03_01 0.000000 0.000000 0.000000 0.000000 0.000000 0.000000 10.000000 
L_front_hand01_02 0.000000 0.000000 0.000000 0.000000 0.000000 0.000000 10.000000 
L_front_hand02_02 0.000000 0.000000 0.000000 0.000000 0.000000 0.000000 10.000000 
L_front_hand03_02 0.000000 0.000000 0.000000 0.000000 0.000000 0.000000 10.000000 
R_forearm 0.000000 0.000000 0.000000 0.000000 0.000000 0.000000 10.000000 
R_front_hand 0.000000 0.000000 0.000000 0.000000 0.000000 0.000000 10.000000 
R_weapon_bone 0.000000 0.000000 0.000000 0.000000 0.000000 0.000000 10.000000 
R_front_hand01_01 0.000000 0.000000 0.000000 0.000000 0.000000 0.000000 10.000000 
R_front_hand02_01 0.000000 0.000000 0.000000 0.000000 0.000000 0.000000 10.000000 
R_front_hand03_01 0.000000 0.000000 0.000000 0.000000 0.000000 0.000000 10.000000 
R_front_hand01_02 0.000000 0.000000 0.000000 0.000000 0.000000 0.000000 10.000000 
R_front_hand02_02 0.000000 0.000000 0.000000 0.000000 0.000000 0.000000 10.000000 
R_front_hand03_02 0.000000 0.000000 0.000000 0.000000 0.000000 0.000000 10.000000 
null_rope01_connect 0.000000 0.000000 0.000000 0.000000 0.000000 0.000000 10.000000 
Rope1_Seg01 0.000000 0.000000 0.000000 0.000000 0.000000 0.000000 10.000000 
Rope1_Seg02 0.000000 0.000000 0.000000 0.000000 0.000000 0.000000 10.000000 
Rope1_Seg03 0.000000 0.000000 0.000000 0.000000 0.000000 0.000000 10.000000 
Rope1_Seg04 0.000000 0.000000 0.000000 0.000000 0.000000 0.000000 10.000000 
Rope1_Seg05 0.000000 0.000000 0.000000 0.000000 0.000000 0.000000 10.000000 
Rope1_Seg06 0.000000 0.000000 0.000000 0.000000 0.000000 0.000000 10.000000 
Rope1_Seg07 0.000000 0.000000 0.000000 0.000000 0.000000 0.000000 10.000000 
Rope1_Seg09 0.000000 0.000000 0.000000 0.000000 0.000000 0.000000 10.000000 
L_mid_hand01 0.000000 0.000000 0.000000 0.000000 0.000000 0.000000 10.000000 
L_mid_hand02 0.000000 0.000000 0.000000 0.000000 0.000000 0.000000 10.000000 
L_mid_hand03 0.000000 0.000000 0.000000 0.000000 0.000000 0.000000 10.000000 
null_rope02_connect 0.000000 0.000000 0.000000 0.000000 0.000000 0.000000 10.000000 
Rope2_Seg01 0.000000 0.000000 0.000000 0.000000 0.000000 0.000000 10.000000 
Rope2_Seg02 0.000000 0.000000 0.000000 0.000000 0.000000 0.000000 10.000000 
Rope2_Seg03 0.000000 0.000000 0.000000 0.000000 0.000000 0.000000 10.000000 
Rope2_Seg04 0.000000 0.000000 0.000000 0.000000 0.000000 0.000000 10.000000 
Rope2_Seg05 0.000000 0.000000 0.000000 0.000000 0.000000 0.000000 10.000000 
Rope2_Seg06 0.000000 0.000000 0.000000 0.000000 0.000000 0.000000 10.000000 
Rope2_Seg07 0.000000 0.000000 0.000000 0.000000 0.000000 0.000000 10.000000 
Rope2_Seg09 0.000000 0.000000 0.000000 0.000000 0.000000 0.000000 10.000000 
R_mid_hand01 0.000000 0.000000 0.000000 0.000000 0.000000 0.000000 10.000000 
R_mid_hand02 0.000000 0.000000 0.000000 0.000000 0.000000 0.000000 10.000000 
R_mid_hand03 0.000000 0.000000 0.000000 0.000000 0.000000 0.000000 10.000000 
spine02 0.000000 0.000000 0.000000 0.000000 0.000000 0.000000 10.000000 
spine03 0.000000 0.000000 0.000000 0.000000 0.000000 0.000000 10.000000 
pelvis 0.000000 0.000000 0.000000 0.000000 0.000000 0.000000 10.000000 
null_rope03_connect 0.000000 0.000000 0.000000 0.000000 0.000000 0.000000 10.000000 
null_rope04_connect 0.000000 0.000000 0.000000 0.000000 0.000000 0.000000 10.000000 
Rope3_Seg01 0.000000 0.000000 0.000000 0.000000 0.000000 0.000000 10.000000 
Rope3_Seg02 0.000000 0.000000 0.000000 0.000000 0.000000 0.000000 10.000000 
Rope3_Seg03 0.000000 0.000000 0.000000 0.000000 0.000000 0.000000 10.000000 
Rope3_Seg04 0.000000 0.000000 0.000000 0.000000 0.000000 0.000000 10.000000 
Rope3_Seg05 0.000000 0.000000 0.000000 0.000000 0.000000 0.000000 10.000000 
Rope3_Seg06 0.000000 0.000000 0.000000 0.000000 0.000000 0.000000 10.000000 
Rope3_Seg07 0.000000 0.000000 0.000000 0.000000 0.000000 0.000000 10.000000 
Rope3_Seg08 0.000000 0.000000 0.000000 0.000000 0.000000 0.000000 10.000000 
Rope3_Seg09 0.000000 0.000000 0.000000 0.000000 0.000000 0.000000 10.000000 
R_rear_hand01 0.000000 0.000000 0.000000 0.000000 0.000000 0.000000 10.000000 
R_rear_hand02 0.000000 0.000000 0.000000 0.000000 0.000000 0.000000 10.000000 
R_rear_hand03 0.000000 0.000000 0.000000 0.000000 0.000000 0.000000 10.000000 
Rope4_Seg01 0.000000 0.000000 0.000000 0.000000 0.000000 0.000000 10.000000 
Rope4_Seg02 0.000000 0.000000 0.000000 0.000000 0.000000 0.000000 10.000000 
Rope4_Seg03 0.000000 0.000000 0.000000 0.000000 0.000000 0.000000 10.000000 
Rope4_Seg04 0.000000 0.000000 0.000000 0.000000 0.000000 0.000000 10.000000 
Rope4_Seg05 0.000000 0.000000 0.000000 0.000000 0.000000 0.000000 10.000000 
Rope4_Seg06 0.000000 0.000000 0.000000 0.000000 0.000000 0.000000 10.000000 
Rope4_Seg07 0.000000 0.000000 0.000000 0.000000 0.000000 0.000000 10.000000 
Rope4_Seg08 0.000000 0.000000 0.000000 0.000000 0.000000 0.000000 10.000000 
Rope4_Seg09 0.000000 0.000000 0.000000 0.000000 0.000000 0.000000 10.000000 
L_rear_hand01 0.000000 0.000000 0.000000 0.000000 0.000000 0.000000 10.000000 
L_rear_hand02 0.000000 0.000000 0.000000 0.000000 0.000000 0.000000 10.000000 
L_rear_hand03 0.000000 0.000000 0.000000 0.000000 0.000000 0.000000 10.000000 
#Beginning of Data. Separated by tabs
#Fr	Tx	Ty	Tz	Rx	Ry	Rz	SF
[MASTER]
1 0.000000 0.000000 0.000000 0.001660 0.001660 0.001660 0.000000
2 0.000000 0.000000 0.000000 0.001660 0.001660 0.001660 0.000000
[root]
1 -16.502293 -62.822132 1500.000000 -91.629700 -27.676081 -90.148109 1501.405640
2 -17.837946 -62.108494 1469.472168 -90.731583 -26.546089 -91.094002 1470.892334
[chest]
1 -84.512650 -34.090519 0.000000 -1.888050 0.943089 -178.206696 91.129311
2 -84.512650 -34.090519 0.000000 1.411522 0.782005 177.826569 91.129311
[L_mid_tent01]
1 27.299500 22.177656 -249.918228 3.862628 36.229202 81.347610 252.381119
2 27.299503 22.177660 -249.918228 4.131487 29.377815 81.684006 252.381119
[R_mid_tent01]
1 23.228794 24.509907 226.238495 160.432037 -47.061241 87.899765 228.744751
2 23.228794 24.509907 226.238495 162.918411 -34.825329 83.475601 228.744751
[spine01]
1 -0.361383 -0.195265 0.000000 0.001845 0.001451 13.654368 0.410763
2 -0.361383 -0.195265 0.000000 0.001909 0.001376 18.452276 0.410763
[Bip01_Neck]
1 165.484543 71.581718 0.000119 176.643677 -1.657967 43.431911 180.302734
2 165.484543 71.581718 0.000119 176.643677 -1.657966 43.431911 180.302734
[L_humerus]
1 -13.983130 -135.272980 -120.471481 156.317398 70.210068 -112.010254 181.680161
2 -13.983130 -135.272980 -120.471481 161.006760 66.725662 -104.961365 181.680161
[R_humerus]
1 -13.983309 -135.273102 125.287651 -172.382263 -66.903831 -92.553993 184.909012
2 -13.983309 -135.273102 125.287651 -173.562408 -63.024452 -91.229309 184.909012
[weapon_bone]
1 235.964890 -300.705902 0.000000 0.000000 -89.951546 -128.212341 382.234833
2 235.964890 -300.705902 0.000000 0.000000 -89.951546 -128.212341 382.234833
[Bip01_Head]
1 213.444443 185.715561 11.776962 4.962490 2.797846 -43.898743 283.173981
2 213.440582 185.726059 11.640250 4.965422 4.680889 -43.863182 283.172302
[eye_left_bone]
1 -24.626970 125.451866 -64.772606 0.000000 -90.000000 -99.840431 143.318359
2 -24.626970 125.451866 -64.772606 0.000000 -90.000000 -99.840431 143.318359
[eye_right_bone]
1 -24.626970 125.451866 64.327362 0.000000 -89.965736 80.156380 143.117676
2 -24.626970 125.451866 64.327362 0.000000 -89.965736 80.156380 143.117676
[L_forearm]
1 322.776093 0.000000 -0.000119 0.000119 -0.002344 -95.807457 322.776093
2 322.776093 0.000000 -0.000119 0.000119 -0.002344 -95.807457 322.776093
[L_front_hand]
1 241.149185 -0.042021 -3.300071 -178.667953 -1.835447 -27.422350 241.171753
2 241.149185 -0.042021 -3.300071 -178.667953 -1.835447 -27.422350 241.171753
[L_weapon_bone]
1 156.183838 0.000000 0.000000 0.000014 0.000007 0.000001 156.183838
2 156.183838 0.000000 0.000000 0.000014 0.000007 0.000001 156.183838
[L_front_hand01_01]
1 86.095154 20.947098 -0.655860 -0.366594 -0.477154 75.385574 88.609184
2 86.095154 20.947098 -0.655860 -0.366594 -0.477154 75.385574 88.609184
[L_front_hand02_01]
1 86.935165 -11.437475 24.513514 154.399796 -59.883835 -61.369587 91.046425
2 86.935165 -11.437475 24.513514 154.399796 -59.883835 -61.369587 91.046425
[L_front_hand03_01]
1 86.637497 -14.123976 -20.424902 -153.913849 58.118122 -62.702866 90.126129
2 86.637497 -14.123976 -20.424902 -153.913849 58.118122 -62.702866 90.126129
[L_front_hand01_02]
1 71.020905 -0.000179 0.000030 0.000322 -0.002325 -105.760704 71.020905
2 71.020905 -0.000179 0.000030 0.000321 -0.002325 -105.723465 71.020905
[L_front_hand02_02]
1 71.020927 -0.000119 0.000060 0.000322 -0.002325 -105.760704 71.020927
2 71.020927 -0.000119 0.000060 0.000321 -0.002325 -105.723465 71.020927
[L_front_hand03_02]
1 71.020905 -0.000060 0.000060 0.000322 -0.002325 -105.760704 71.020905
2 71.020905 -0.000060 0.000060 0.000321 -0.002325 -105.723465 71.020905
[R_forearm]
1 322.776428 -0.000060 0.000030 0.209504 0.012586 -94.339050 322.776428
2 322.776428 -0.000060 0.000030 0.209504 0.012586 -94.339050 322.776428
[R_front_hand]
1 238.847015 -0.006795 2.210259 -2.635298 -10.645461 -26.312506 238.857239
2 238.847015 -0.006795 2.210259 -2.635298 -10.645461 -26.312506 238.857239
[R_weapon_bone]
1 155.664093 0.002503 -0.000030 0.003487 0.001180 -90.988930 155.664078
2 155.664093 0.002503 -0.000030 0.003487 0.001180 -90.988930 155.664078
[R_front_hand01_01]
1 87.624611 14.231146 22.918642 -154.633499 -59.950619 61.746044 91.683487
2 87.624611 14.231146 22.918642 -154.633499 -59.950619 61.746044 91.683487
[R_front_hand02_01]
1 89.356956 14.367283 -19.491137 154.602661 58.302849 63.744389 92.579636
2 89.356956 14.367283 -19.491137 154.602661 58.302849 63.744389 92.579636
[R_front_hand03_01]
1 87.286232 -22.307278 -0.143439 0.162155 -0.423168 -75.767921 90.091743
2 87.286232 -22.307278 -0.143439 0.162155 -0.423168 -75.767921 90.091743
[R_front_hand01_02]
1 71.020905 0.000060 0.000119 0.002323 -0.000334 106.381714 71.020905
2 71.020905 0.000060 0.000119 0.002323 -0.000334 106.381721 71.020905
[R_front_hand02_02]
1 71.020844 -0.000030 -0.000119 0.002323 -0.000334 106.381714 71.020836
2 71.020844 -0.000030 -0.000119 0.002323 -0.000334 106.381721 71.020836
[R_front_hand03_02]
1 71.020905 0.000000 0.000030 0.002323 -0.000334 106.381714 71.020905
2 71.020905 0.000000 0.000030 0.002323 -0.000334 106.381721 71.020905
[null_rope01_connect]
1 328.732483 0.000000 -0.000238 -137.564545 -51.925488 175.258728 328.732483
2 328.732483 0.000000 -0.000238 -135.791321 -58.911736 171.573914 328.732483
[Rope1_Seg01]
1 0.000000 -0.000076 0.000153 112.259171 44.069496 137.523651 0.000171
2 0.000002 -0.000076 0.000132 120.186348 40.092682 151.886475 0.000152
[Rope1_Seg02]
1 139.999863 -0.000179 0.000000 0.003145 -9.291748 3.768240 139.999863
2 139.999863 -0.000179 0.000000 0.204084 -14.765771 6.796549 139.999863
[Rope1_Seg03]
1 139.999924 0.000060 -0.000060 -1.634100 -14.743020 4.847658 139.999924
2 139.999924 0.000060 -0.000060 -5.161952 -27.748493 8.993317 139.999924
[Rope1_Seg04]
1 139.999924 -0.000060 -0.000119 -7.139671 -22.194532 6.358781 139.999924
2 139.999924 -0.000060 -0.000119 -4.700681 -17.500774 16.354055 139.999924
[Rope1_Seg05]
1 139.999832 0.000119 -0.000060 0.653937 -10.726091 15.331164 139.999832
2 139.999832 0.000119 -0.000060 8.123288 -0.126265 9.767117 139.999832
[Rope1_Seg06]
1 139.999954 0.000119 -0.000060 3.245685 -3.608886 7.364501 139.999954
2 139.999954 0.000119 -0.000060 2.441644 -1.062468 3.714679 139.999954
[Rope1_Seg07]
1 139.999985 0.000060 0.000000 1.157277 -2.315529 3.550550 139.999985
2 139.999985 0.000060 0.000000 1.722831 -0.531156 2.204802 139.999985
[Rope1_Seg09]
1 121.602913 0.000119 -0.000089 -89.793175 -1.359789 0.847147 121.602913
2 121.602913 0.000119 -0.000089 -89.793175 -1.359789 0.847147 121.602913
[L_mid_hand01]
1 103.859421 1.038730 8.195221 130.544373 -67.584534 -38.866943 104.187431
2 103.859421 1.038730 8.195221 128.584747 -66.574249 -36.738117 104.187431
[L_mid_hand02]
1 105.572853 -4.139662 -10.864139 -168.923172 43.409309 -73.498886 106.211075
2 105.572853 -4.139662 -10.864139 -167.717957 43.141708 -71.740593 106.211075
[L_mid_hand03]
1 104.641464 17.579376 -3.913581 -6.012627 17.808174 74.893669 106.179977
2 104.641464 17.579376 -3.913581 -6.429527 17.666080 73.526825 106.179977
[null_rope02_connect]
1 328.732849 0.000179 -0.000119 -123.736763 41.490059 18.218470 328.732849
2 328.732849 0.000179 -0.000119 -118.785805 53.252518 22.722073 328.732849
[Rope2_Seg01]
1 0.000000 0.000153 0.000153 -57.184681 43.525932 39.256832 0.000216
2 -0.000009 0.000150 0.000146 -56.918900 32.991791 33.045036 0.000210
[Rope2_Seg02]
1 139.999741 -0.000060 -0.000119 -0.306449 -8.998641 4.040047 139.999756
2 139.999741 -0.000060 -0.000119 -1.011687 -8.734785 6.043892 139.999756
[Rope2_Seg03]
1 140.000107 0.000030 0.000000 -0.553694 -11.682470 5.424583 140.000107
2 140.000107 0.000030 0.000000 -0.564638 -8.227530 5.454038 140.000107
[Rope2_Seg04]
1 139.999802 0.000000 -0.000060 -1.589644 -19.572760 9.148644 139.999802
2 139.999802 0.000000 -0.000060 -1.547905 -18.979628 13.407875 139.999802
[Rope2_Seg05]
1 139.999985 -0.000060 0.000119 -2.257265 -19.873791 8.368438 139.999985
2 139.999985 -0.000060 0.000119 0.890491 -18.360252 13.542548 139.999985
[Rope2_Seg06]
1 139.999893 -0.000030 -0.000119 -0.693721 -6.645129 2.588553 139.999893
2 139.999893 -0.000030 -0.000119 1.824490 -6.007375 4.746562 139.999893
[Rope2_Seg07]
1 139.999893 0.000060 -0.000060 -0.408217 -3.402016 1.305212 139.999893
2 139.999893 0.000060 -0.000060 1.428585 -3.133838 2.654500 139.999893
[Rope2_Seg09]
1 121.338966 0.000089 -0.000060 33.793236 -1.359788 -0.847141 121.338966
2 121.338966 0.000089 -0.000060 33.793236 -1.359788 -0.847141 121.338966
[R_mid_hand01]
1 104.680779 11.144459 -10.335981 -16.212063 45.237247 70.462852 105.778534
2 104.680779 11.144459 -10.335981 -16.756907 45.078602 69.693840 105.778534
[R_mid_hand02]
1 104.070427 2.443552 8.231699 49.067368 -67.749771 39.286453 104.424065
2 104.070427 2.443552 8.231699 49.966972 -67.318741 38.315926 104.424065
[R_mid_hand03]
1 106.028137 -11.221827 -5.996406 -177.101105 15.551026 -76.585571 106.788818
2 106.028137 -11.221827 -5.996406 -176.940826 15.523118 -75.998016 106.788818
[spine02]
1 129.756927 0.001550 0.000119 -1.023899 -3.926965 6.770993 129.756927
2 129.756927 0.001550 0.000119 -1.023899 -3.926965 6.770993 129.756927
[spine03]
1 78.613892 0.087280 -4.898882 1.040681 4.146420 4.212376 78.766426
2 78.613892 0.087294 -4.898880 1.040681 4.146420 4.212376 78.766426
[pelvis]
1 169.435242 0.051022 0.000000 0.019518 -0.190233 -10.721436 169.435257
2 169.435242 0.051022 0.000000 0.019518 -0.190233 -10.721436 169.435257
[null_rope03_connect]
1 -1.257226 -2.466202 137.391083 -148.996323 -87.995132 -107.160522 137.418976
2 -1.257226 -2.466202 137.391083 -121.956566 -88.213707 -140.146805 137.418976
[null_rope04_connect]
1 -1.259640 -2.480268 -137.844437 -148.996323 -87.995132 -107.160522 137.872513
2 -1.259640 -2.480268 -137.844437 -121.956566 -88.213707 -140.146805 137.872513
[Rope3_Seg01]
1 0.000000 -0.000057 0.000000 -140.938873 -39.465446 -66.548393 0.000057
2 0.000003 -0.000056 0.000014 -145.669083 -40.554817 -59.653950 0.000058
[Rope3_Seg02]
1 139.999924 -0.000119 0.000060 -16.526678 4.803106 -33.280575 139.999924
2 139.999924 -0.000119 0.000060 -10.512043 1.723487 -23.124315 139.999924
[Rope3_Seg03]
1 139.999924 -0.000119 0.000119 -62.690422 19.817314 -48.416908 139.999924
2 139.999924 -0.000119 0.000119 -65.475281 14.956361 -49.786434 139.999924
[Rope3_Seg04]
1 139.999924 0.000119 0.000000 -23.821611 29.347103 -8.840995 139.999924
2 139.999924 0.000119 0.000000 -35.796577 33.837925 -16.119148 139.999924
[Rope3_Seg05]
1 139.999924 -0.000238 0.000060 -7.873841 28.582319 1.712229 139.999924
2 139.999924 -0.000238 0.000060 -11.395208 29.389103 -1.999292 139.999924
[Rope3_Seg06]
1 139.999893 -0.000119 -0.000060 -0.350693 10.406072 2.294059 139.999893
2 139.999893 -0.000119 -0.000060 -0.935666 9.996914 1.885958 139.999893
[Rope3_Seg07]
1 139.999771 0.000060 -0.000119 0.452964 5.182023 1.220269 139.999771
2 139.999771 0.000060 -0.000119 0.159514 5.036683 1.112654 139.999771
[Rope3_Seg08]
1 139.999985 -0.000060 0.000000 0.596465 2.837502 0.644741 139.999985
2 139.999985 -0.000060 0.000000 0.431390 2.724803 0.595684 139.999985
[Rope3_Seg09]
1 90.185997 -0.000179 -0.000060 89.793228 -1.359877 -0.847183 90.185997
2 90.185997 -0.000179 -0.000060 89.793228 -1.359877 -0.847183 90.185997
[R_rear_hand01]
1 103.366196 -6.073594 -10.757982 -177.714203 24.565960 -73.910950 104.101845
2 103.366196 -6.073594 -10.757982 -177.375809 24.533825 -73.108765 104.101845
[R_rear_hand02]
1 100.509819 12.039542 -7.992327 -12.874829 36.868488 72.167213 101.543350
2 100.509819 12.039542 -7.992327 -13.406411 36.702328 71.277184 101.543350
[R_rear_hand03]
1 101.539970 5.215704 5.435467 71.484581 -71.816628 21.513813 101.819031
2 101.539970 5.215704 5.435467 72.167244 -71.123337 20.795889 101.819031
[Rope4_Seg01]
1 0.000000 -0.000076 -0.000153 51.408890 -25.648285 -105.326271 0.000171
2 0.000002 -0.000073 -0.000160 51.439468 -30.166271 -103.525291 0.000175
[Rope4_Seg02]
1 139.999985 0.000060 0.000119 15.181762 -49.370827 12.209862 139.999985
2 139.999985 0.000060 0.000119 12.298382 -43.497765 4.727410 139.999985
[Rope4_Seg03]
1 139.999924 0.000000 -0.000238 46.329227 -36.160988 26.714025 139.999924
2 139.999924 0.000000 -0.000238 46.106716 -36.194881 14.714950 139.999924
[Rope4_Seg04]
1 139.999985 0.000000 0.000119 20.872625 -1.881570 23.829966 139.999985
2 139.999985 0.000000 0.000119 29.958746 -7.248333 20.557165 139.999985
[Rope4_Seg05]
1 139.999802 -0.000060 -0.000119 15.061194 9.280098 34.461594 139.999802
2 139.999802 -0.000060 -0.000119 23.597300 6.982847 37.482315 139.999802
[Rope4_Seg06]
1 139.999924 0.000000 0.000060 2.040971 7.485725 14.079049 139.999924
2 139.999924 0.000000 0.000060 4.576848 10.793159 17.339428 139.999924
[Rope4_Seg07]
1 139.999802 0.000000 0.000000 0.097149 3.364704 5.944563 139.999802
2 139.999802 0.000000 0.000000 0.577667 4.587108 6.452901 139.999802
[Rope4_Seg08]
1 139.999924 0.000000 0.000119 -1.672046 1.769295 3.127353 139.999924
2 139.999924 0.000000 0.000119 -1.470878 2.344432 3.251955 139.999924
[Rope4_Seg09]
1 90.185791 0.000060 0.000060 -135.617828 2.228885 0.850567 90.185791
2 90.185791 0.000060 0.000060 -135.617828 2.228885 0.850567 90.185791
[L_rear_hand01]
1 101.696655 -8.392275 -7.654577 -12.874829 -36.868488 107.832764 102.329041
2 101.696655 -8.392275 -7.654577 -14.676043 -36.272404 110.857796 102.329041
[L_rear_hand02]
1 102.726799 -1.568258 5.773216 71.484581 71.816628 158.486160 102.900848
2 102.726799 -1.568258 5.773216 73.610298 69.437729 160.740753 102.900848
[L_rear_hand03]
1 104.552910 9.721220 -10.420293 -177.714203 -24.565960 -106.089035 105.519653
2 104.552910 9.721220 -10.420293 -176.571304 -24.441328 -108.830589 105.519653
